<?xml version="1.0" encoding="UTF-8" standalone="no"?>
<svg
   xmlns:dc="http://purl.org/dc/elements/1.1/"
   xmlns:cc="http://creativecommons.org/ns#"
   xmlns:rdf="http://www.w3.org/1999/02/22-rdf-syntax-ns#"
   xmlns:svg="http://www.w3.org/2000/svg"
   xmlns="http://www.w3.org/2000/svg"
   xmlns:xlink="http://www.w3.org/1999/xlink"
   xmlns:sodipodi="http://sodipodi.sourceforge.net/DTD/sodipodi-0.dtd"
   xmlns:inkscape="http://www.inkscape.org/namespaces/inkscape"
   width="210mm"
   height="297mm"
   viewBox="0 0 210 297"
   version="1.1"
   id="svg126"
   inkscape:version="1.0.1 (3bc2e813f5, 2020-09-07)"
   sodipodi:docname="storyfire1.svg">
  <defs
     id="defs120">
    <linearGradient
       inkscape:collect="always"
       xlink:href="#linearGradient3204"
       id="linearGradient3206"
       x1="150.20547"
       y1="216.81914"
       x2="12.294398"
       y2="176.19417"
       gradientUnits="userSpaceOnUse" />
    <linearGradient
       inkscape:collect="always"
       id="linearGradient3204">
      <stop
         style="stop-color:#b10006;stop-opacity:1"
         offset="0"
         id="stop3200" />
      <stop
         style="stop-color:#e90022;stop-opacity:1"
         offset="1"
         id="stop3202" />
    </linearGradient>
    <linearGradient
       inkscape:collect="always"
       xlink:href="#linearGradient3214"
       id="linearGradient3216"
       x1="123.97619"
       y1="77.773804"
       x2="60.476189"
       y2="191.16666"
       gradientUnits="userSpaceOnUse" />
    <linearGradient
       inkscape:collect="always"
       id="linearGradient3214">
      <stop
         style="stop-color:#ff9c01;stop-opacity:1"
         offset="0"
         id="stop3210" />
      <stop
         style="stop-color:#e7301f;stop-opacity:1"
         offset="1"
         id="stop3212" />
    </linearGradient>
  </defs>
  <sodipodi:namedview
     id="base"
     pagecolor="#ffffff"
     bordercolor="#666666"
     borderopacity="1.0"
     inkscape:pageopacity="0.0"
     inkscape:pageshadow="2"
     inkscape:zoom="0.35"
     inkscape:cx="400"
     inkscape:cy="560"
     inkscape:document-units="mm"
     inkscape:current-layer="layer1"
     inkscape:document-rotation="0"
     showgrid="false"
     inkscape:window-width="1280"
     inkscape:window-height="962"
     inkscape:window-x="-8"
     inkscape:window-y="-8"
     inkscape:window-maximized="1" />
  <metadata
     id="metadata123">
    <rdf:RDF>
      <cc:Work
         rdf:about="">
        <dc:format>image/svg+xml</dc:format>
        <dc:type
           rdf:resource="http://purl.org/dc/dcmitype/StillImage" />
        <dc:title></dc:title>
      </cc:Work>
    </rdf:RDF>
  </metadata>
  <g
     inkscape:label="Layer 1"
     inkscape:groupmode="layer"
     id="layer1">
    <g
       transform="matrix(0.98042643,0,0,0.98042643,2.8500733,8.0626514)"
       id="g837"
       style="stroke-width:1.01996;image-rendering:auto">
      <path
         style="fill:url(#linearGradient3206);fill-opacity:1;stroke:none;stroke-width:0.269866px;stroke-linecap:butt;stroke-linejoin:miter;stroke-opacity:1"
         d="m 92.976387,34.274046 c -4.911078,31.782801 -66.048982,47.684122 -66.048982,94.412964 0,21.86476 13.520011,35.29798 27.302638,46.23714 6.564062,5.20984 13.815711,9.2872 18.152346,14.08744 6.744385,7.46539 8.181014,15.20457 2.456895,20.29792 C 58.486032,223.86071 26.115732,190.4844 16.938206,152.34036 2.1958012,204.8192 34.269423,265.26172 93.87842,265.26172 c 30.7816,0 58.46521,-22.41737 58.46521,-54.72342 0,-32.6565 -25.48133,-51.52649 -43.11028,-66.05916 -14.787318,-12.19015 -29.921118,-17.68871 -29.921118,-36.00439 0,-9.432053 4.194073,-16.180249 8.108588,-24.44571 6.490175,-13.703944 12.88044,-30.876734 5.555567,-49.754994 z"
         id="path3183"
         inkscape:connector-curvature="0"
         sodipodi:nodetypes="csssscsssssc" />
      <path
         style="fill:url(#linearGradient3216);fill-opacity:1;stroke:none;stroke-width:0.269866px;stroke-linecap:butt;stroke-linejoin:miter;stroke-opacity:1"
         d="m 103.57694,23.624657 c 13.70066,3.550635 27.83967,10.499055 35.40321,20.939264 22.06558,30.457844 -1.8649,56.037139 10.22306,61.739259 7.21681,3.40431 16.34205,-3.80357 12.91532,-29.313257 20.88774,7.292086 20.56607,40.691427 15.88463,49.590047 35.30651,52.3659 5.36911,113.71946 -36.48395,131.73275 15.85391,-15.86427 28.56638,-43.15845 22.75869,-64.68922 -7.72609,-28.64282 -29.1139,-45.03277 -44.59533,-57.24085 -12.70484,-10.01857 -25.211648,-15.18887 -25.892911,-28.4282 -0.566372,-11.006597 5.918923,-17.47376 10.065691,-29.443207 4.53546,-13.091386 10.05288,-31.989402 -0.27841,-54.886586 z"
         id="path3198"
         inkscape:connector-curvature="0"
         sodipodi:nodetypes="csscccssssc" />
    </g>
  </g>
</svg>
